<svg version="1" xmlns="http://www.w3.org/2000/svg" width="473.333" height="473.333" viewBox="0 0 355.000000 355.000000"><path d="M156 1.1C112.3 6.1 69.9 29 41.5 63 14.3 95.6 0 134.8 0 177c0 81.6 54.8 151.7 134.5 172.1 25.1 6.4 59.9 6.4 85 0 32.9-8.4 59.5-23.7 83.5-48 33.4-33.7 51-76.8 51-124.2-.1-29.9-5.9-54.1-19.6-80.9-26.9-52.6-79-88.5-137.6-94.9C185.7-.2 167-.1 156 1.1zM91.4 102c15.4 5.8 24.4 19 24.9 36.3l.2 8.1-7 1.2c-12.9 2.3-12.2 2.7-12.7-7.4-.6-10.4-2.8-14.9-9.3-18.7-3.7-2.2-5.4-2.5-13.8-2.5-10.6 0-13.9.9-18 4.8-5.8 5.5-5.7 4.4-5.7 51.9 0 49.1-.2 47.7 7.3 53.7 3.7 3 4.4 3.1 14.5 3.4 9.7.3 11.1.1 15.2-2.1 3.4-1.8 5.2-3.7 7.2-7.6 2.7-5.1 2.8-5.9 2.8-20.2V188H74v-19h43l-.2 40.7-.3 40.8-4.2.3c-3.8.3-4.4 0-6.9-3.5-1.5-2.1-3.1-4.2-3.5-4.6-.4-.5-2.9.7-5.6 2.7-7.6 5.4-12.4 6.8-23.8 6.9-19.1.1-31.6-7-38.9-22.3l-3.1-6.5-.3-45.9c-.3-51-.3-51 6.4-61.2 5.8-8.7 15.2-14.8 25.8-16.5 8.3-1.3 22.6-.2 29 2.1zm212.8 0c10.7 4 20.1 13.8 23.3 24.5.8 2.7 1.5 8.4 1.5 12.6v7.6l-8.2 1.1c-4.6.7-8.8 1.2-9.4 1.2-.7 0-1.3-3.2-1.6-8.3-.6-9.4-2.1-13-7.2-17.5-4.3-3.8-7.8-4.5-19.4-4.1-10.3.5-14.5 2.6-18.4 9.4-2.3 4-2.3 4.3-2.6 45.2-.2 27.4.1 42.6.8 45.3 1.3 4.9 6.3 10.8 10.7 12.6 3.9 1.7 19.9 1.9 24 .3 3.5-1.3 8-5.5 10-9.2.8-1.6 1.7-6.8 2-11.6l.6-8.7 9.3 1.5 9.4 1.5v7.5c0 4.2-.7 9.7-1.4 12.2-3.6 11.9-13.8 21.9-26 25.6-6.4 2-23.2 2.2-30.4.4-11-2.8-21.9-12.6-26.4-24-2.1-5.4-2.2-7-2.6-45.7-.4-43.2.2-51.2 4.2-59.9 4.8-10.5 16.4-19.4 28.4-21.5 7.7-1.4 23.1-.4 29.4 2zm-109.8 0c12.7 2.1 23.4 10.2 29 22 3 6.3 3.1 7 3.4 22.8.4 18.6-.5 23.1-6.6 32-4.3 6.5-10.5 11.4-18 14.4-5 1.9-8 2.2-23.9 2.6l-18.3.4-.2 27.1-.3 27.2h-19l-.3-73.5c-.1-40.4 0-74.1.3-74.8.6-1.5 44.8-1.7 53.9-.2z"/><path d="M160 149.1v28.1l16.8-.4c13.2-.3 17.4-.7 19.8-2 3.9-2.1 9.2-8.1 10-11.2.3-1.3.4-8.9.2-16.9-.3-14.5-.3-14.5-3.3-18.3-5.5-6.8-7.8-7.4-26.7-7.4H160v28.1z"/></svg>